<?xml version="1.0" encoding="utf-8"?>
<!-- Generator: Adobe Illustrator 25.0.0, SVG Export Plug-In . SVG Version: 6.00 Build 0)  -->
<svg version="1.1" id="Camada_1" xmlns="http://www.w3.org/2000/svg" xmlns:xlink="http://www.w3.org/1999/xlink" x="0px" y="0px"
	 viewBox="0 0 1080 1080" enable-background="new 0 0 1080 1080" xml:space="preserve">
<g>
	<path fill="#4C04D6" d="M115.955,21.345C207,21,916.087,18.52,984.044,18.76C1052,19,1052.18,67.942,1052.039,118.796
		c-0.778,280.803-0.78,561.61,0.001,842.412c0.141,50.863,0.037,100.293-68.001,100.042c-68.038-0.251-578.715-1.974-868.073-2.59
		C100.732,1058.629,24,1061,24.428,965.77C24.754,681.924,24,351,24.429,114.23C24.429,114.23,24.909,21.691,115.955,21.345z
		 M665.654,297.813c-59.255,8.244-59.255,8.244-119.141-34.839c-59.892-43.087-137.636-37.352-188.239,13.887
		c-49.208,49.826-56.58,126.291-17.676,183.335c92.371,135.443,360.349,175.347,485.365,72.362
		c54.526-44.917,65.418-95.216,15.354-149.962c-63.52-69.462-125.838-140.445-193.841-205.221
		c-96.396-91.822-228.953-96.842-332.637-19.083c-114.629,85.967-145.54,214.652-80.968,348.517
		c41.579,86.196,76.211,169.943,43.406,270.634c-16.977,52.11,6.999,103.892,47.682,143.478
		c58.322,56.749,138.047,69.482,205.28,32.631c66.99-36.718,105.864-114.744,89.161-190.238
		c-17.938-81.077-67.738-130.447-151.758-143.056c-136.373-20.466-239.156-145.071-220.148-264.402
		c15.615-98.031,86.406-171.212,183.427-190.153C545.257,143.382,607.798,212.557,665.654,297.813z"/>
	<path fill="#F0EAFB" d="M665.654,297.813c-57.856-85.256-120.397-154.431-234.733-132.11
		c-97.021,18.941-167.812,92.122-183.427,190.153c-19.008,119.331,83.775,243.936,220.148,264.402
		c84.02,12.609,133.82,61.979,151.758,143.056c16.703,75.494-22.172,153.52-89.161,190.238
		c-67.232,36.851-146.958,24.118-205.28-32.631c-40.682-39.585-64.659-91.368-47.682-143.478
		c32.805-100.691-1.827-184.437-43.406-270.634c-64.573-133.865-33.662-262.55,80.968-348.517
		c103.685-77.759,236.241-72.739,332.637,19.083c68.003,64.776,130.321,135.759,193.841,205.221
		c50.064,54.747,39.172,105.045-15.354,149.962c-125.017,102.985-392.995,63.081-485.365-72.362
		c-38.904-57.045-31.532-133.509,17.676-183.335c50.603-51.239,128.347-56.974,188.239-13.887
		C606.399,306.057,606.399,306.057,665.654,297.813z M609.497,539.724c55.748-0.902,111.034-7.577,158.272-38.423
		c17.371-11.343,62.57-12.618,39.5-54.907c-20.541-37.653-44.505-13.471-68.587-1.654c-98.83,48.496-207.573,36.608-276.866-29.893
		c-14.948-14.345-41.263-30.191-19.198-53.611c18.568-19.708,33.776,5.071,47.48,16.303
		c66.101,54.176,138.442,63.602,215.843,30.266c15.008-6.464,42.029-11.27,29.09-38.691c-8.046-17.052-22.319-35.989-45.161-26.216
		c-71.931,30.777-124.259-0.449-179.249-45.426c-41.643-34.06-90.018-21.322-124.705,19.671
		c-32.335,38.214-35.326,82.055-1.717,121.366C443.191,507.512,518.87,541.532,609.497,539.724z M556.609,799.683
		c1.816-63.092-42.35-111.364-104.34-114.042c-62.511-2.701-111.237,41.146-114.888,103.384
		c-3.832,65.329,44.515,118.46,108.424,119.154C506.901,908.842,554.818,861.924,556.609,799.683z"/>
	<path fill="#4C04D6" d="M609.497,539.724C518.87,541.532,443.191,507.512,384.2,438.51c-33.609-39.312-30.618-83.152,1.717-121.366
		c34.687-40.993,83.062-53.732,124.705-19.671c54.99,44.977,107.319,76.203,179.249,45.426c22.842-9.774,37.115,9.164,45.161,26.216
		c12.939,27.42-14.082,32.227-29.09,38.691c-77.4,33.336-149.741,23.909-215.843-30.266c-13.704-11.232-28.912-36.011-47.48-16.303
		c-22.065,23.42,4.25,39.266,19.198,53.611c69.292,66.5,178.035,78.388,276.866,29.893c24.082-11.817,48.047-35.999,68.587,1.654
		c23.07,42.289-22.129,43.564-39.5,54.907C720.531,532.147,665.245,538.822,609.497,539.724z"/>
	<path fill="#4C04D6" d="M556.609,799.683c-1.791,62.241-49.708,109.159-110.804,108.496
		c-63.91-0.694-112.257-53.825-108.424-119.154c3.651-62.238,52.377-106.085,114.888-103.384
		C514.26,688.319,558.425,736.591,556.609,799.683z"/>
</g>
<path fill="#4C04D6" d="M-576-64"/>
<g>
</g>
<g>
</g>
<g>
</g>
<g>
</g>
<g>
</g>
<g>
</g>
<g>
</g>
<g>
</g>
<g>
</g>
<g>
</g>
<g>
</g>
<g>
</g>
<g>
</g>
<g>
</g>
<g>
</g>
</svg>
